<?xml version="1.0" encoding="UTF-8"?>
<svg id="Layer_1" data-name="Layer 1" xmlns="http://www.w3.org/2000/svg" viewBox="0 0 1335.5 339.65">
  <defs>
    <style>
      .cls-1 {
        fill: #fff;
      }
    </style>
  </defs>
  <path class="cls-1" d="M1013.06,80.14l4.39-21.39c1.3-5.9,7.39-11.28,16.28-10.97h14.99l3.02-13.6h-10.41c-10.32,0-17.49,3.2-22.32,12.8l2.72-12.8h-24.85l-5.7,27.09c-1.38,7.09-8.1,9.31-14.18,9.09h-14.1c-8.53.49-5.82-9.09-5.82-9.09l5.45-27.09h-25.89l-4.68,22.69c-1.01,4.14-2.17,13.48-8.79,13.48h-7.72c-3.37,0-6.57-2.69-4.82-9.09l5.6-27.09h-26.03l-5.7,27.09c-1.69,8.09-6.77,9.09-14.86,9.09h-21.5c-7.08,0-10.3-2-8.78-9.09l3.39-17.19,25.27.19,2.31-10.09h-25.58l4.07-18.87-9.47.51-33.28,21.56-1.09,6.7h12.2l-3.69,17.19c-.7,3.19-2.4,8.86-12.19,8.86l-18.8.23c-3.37,0-10.78-.51-8.5-9.09l12.9-61.25-26.65,5.2-11.11,53.06c-1.3,6.18-5.01,12.07-12.09,12.07h-15.17c-7,0-8.89-2-7.71-9.09l5.72-27.09h-26.03l-5.63,27.09c-1.32,6.12-3.49,9.09-8.4,9.09h-6.92c-5.87,0-6.4-3.7-4.57-11.6l4.78-24.58h-25.72l-5.47,26.07c-.17,1.71-4.18,9.4-15.65,9.4h-56.12c-17.23,0-24.31-6.39-24.31-21.68,1.5-22.06,21.39-25.57,37.55-25.57h21.17l9.31,13.54h8.71l5.09-24.82-53.04.5c-27.78.19-59.24,5.89-59.24,37.35s32.89,31.18,40.73,31.18h56.77c10.8,0,24.15.3,29.88-9.8,1.05,6.15,6.38,9.8,12.78,9.8h17.56c8.89,0,13.09-4.4,15.8-8.3.38,2.38,2.21,8.09,15.48,8.3h23.26c4.32,0,15.37.99,20.18-8.3,1.58,5.39,3.7,8.3,15.48,8.3h26.9c5.06,0,19.56.99,23.27-8.3,1.53,4.65,4.69,8.3,14.79,8.3h34.96c3.68,0,16.56,1.8,22-8.3,1.26,2.89,5.28,8.3,13.75,8.3l15.33.3c5.16,0,10.57-.51,16.27-8.6,1.69,6.09,8.75,8.3,15.18,8.3h27.78c2.7,0,10.87.99,16.28-8.3l-2.01,8.3h25.27ZM363.45,72.03c.99,7.4,8.89,8.11,15.27,8.11,9.1,0,18.4-.21,27.78,0,2.7,0,9.79-.47,15.2-6.85l-.73,6.85,25.07-.21,4.4-20.18c.99-3.89,5.41-12.98,14.79-12.79h17.92l2.95-12.98h-10.59c-8.08,0-16.47.99-23.07,11.05l2.2-11.05h-24.82l-5.65,27.01c-1.5,7.15-8.09,8.84-14.29,9.12h-13.98c-8.59.45-5.9-9.12-5.9-9.12l5.66-27.01h-45.98c-24.57.49-37.6,11.53-37.85,25.76v3.01c-2.7,2.87-8.6,7.07-17.21,7.07h-45.23c-17.19,0-24.33-6.39-24.33-21.59.24-22.86,25.32-25.54,37.61-25.54h21.12l9.35,13.48h7.86l5.4-24.85-52.59.47c-25.81.31-59.24,4.7-59.24,38.86,0,29.96,37.62,29.48,41.78,29.48h46.7c10.83,0,25.31-.21,30.97-10.03,3.93,7.12,12.52,11.33,25.31,11.33,8.85,0,17.69-2.52,24.08-9.41h0ZM1094.17,60.75c10.59-.22,34.98-1.51,34.2-15.71,0-12.56-22.41-12.77-30.19-12.77-18.79,0-47.04,4.9-47.04,27.47,0,6.39,3.29,12.59,10.08,16.27,6.69,3.41,15.79,4.12,24.4,4.12h35.84l2.28-10.5h-31.57c-7.34-.3-12.17-1.49-13.92-8.64l15.93-.24ZM366.43,45.04c-1.99,10.51-2.98,24.11-16.47,24.11-10.34.19-11.8-6.71-11.57-10.88,0-9.58,11.07-13.23,19.16-13.23h8.88ZM1079.21,52.66c1.48-8.4,13.56-13.79,21.88-13.29,3.49.2,7.88,1.19,7.88,4.89.23,7.63-15.04,8.59-21.43,8.4h-8.33Z"/>
  <path class="cls-1" d="M667.74,339.65L0,73.06c5.85-2.52,9.2-2.52,15.05-2.52s24.23,5.02,35.93,8.37l616.76,177.16,616.77-177.16c11.7-3.35,30.08-8.37,35.94-8.37s9.2,0,15.04,2.52l-667.76,266.58Z"/>
</svg>